<?xml version="1.0" encoding="utf-8"?>
<!-- Generator: Adobe Illustrator 28.2.0, SVG Export Plug-In . SVG Version: 6.00 Build 0)  -->
<svg version="1.1" id="Connecting_Experts_Across_The_Globe"
	 xmlns="http://www.w3.org/2000/svg" xmlns:xlink="http://www.w3.org/1999/xlink" x="0px" y="0px" viewBox="0 0 115 115"
	 style="enable-background:new 0 0 115 115;" xml:space="preserve">
<style type="text/css">
	.st0{clip-path:url(#SVGID_00000181808839200148169570000001048174729485620915_);}
	.st1{fill:#0C9448;}
</style>
<g>
	<defs>
		<rect id="SVGID_1_" width="115" height="115"/>
	</defs>
	<clipPath id="SVGID_00000056414104325828347360000012533462384824530623_">
		<use xlink:href="#SVGID_1_"  style="overflow:visible;"/>
	</clipPath>
	<g id="Group_175" style="clip-path:url(#SVGID_00000056414104325828347360000012533462384824530623_);">
		<path id="Path_490" class="st1" d="M0,54.2c0.3-2.2,0.5-4.5,0.9-6.7c0.5-2.6,1.2-5.1,1.9-7.7c0.2-0.4,0.5-0.7,1-0.8
			c8.9,0,17.9,0,26.8,0c0.1,0,0.3,0,0.4,0.1c-0.2,2.3-0.4,4.7-0.6,7c-0.6,7.6-0.6,15.3,0,22.9c0.1,0.7-0.2,1.3-0.8,1.6
			c-2.3,1.2-4.1,3.2-5.1,5.6c-0.1,0.6-0.7,1-1.4,1c-6.3,0-12.6,0-18.9,0c-0.6,0.1-1.2-0.3-1.3-0.9C1.5,71.5,0.6,66.8,0.2,62
			c0-0.4-0.1-0.7-0.2-1.1V54.2"/>
		<path id="Path_491" class="st1" d="M56.4,115c-3.7-1.1-6.1-3.7-8.2-6.8c-3.5-5.6-6-11.7-7.5-18.1c2.3-1.4,4-3.5,5-6
			c0.2-0.3,0.5-0.4,0.8-0.4c9.7,0,19.4,0,29.1,0c0,0,0.1,0,0.3,0.2c-0.2,0.8-0.3,1.7-0.5,2.6c-1.3,6.4-3.5,12.7-6.5,18.5
			c-0.7,1.4-1.6,2.7-2.5,4c-1.9,2.7-4.3,5-7.6,6L56.4,115z"/>
		<path id="Path_492" class="st1" d="M38,38.9h1.1c9.7,0,19.3,0,29,0c0.7-0.1,1.3,0.3,1.5,0.9c1.3,3.3,4,5.7,7.4,6.6
			c0.6,0.1,1,0.6,1,1.2c0.6,9.5,0.3,18.9-0.9,28.3c-0.1,0.8-0.3,1-1.1,1c-9.8,0-19.5,0-29.3,0c-0.7,0-0.9-0.3-1.2-0.9
			c-1.3-3.3-4.1-5.8-7.5-6.7c-0.6-0.1-1-0.6-0.9-1.2c0,0,0,0,0,0c-0.1-6.1-0.2-12.1-0.2-18.2c0-3.2,0.5-6.3,0.7-9.5
			C37.8,40.1,37.9,39.6,38,38.9"/>
		<path id="Path_493" class="st1" d="M90.8,38.9h9.9c3.4,0,6.8,0,10.2,0c0.6-0.1,1.2,0.3,1.3,0.9c0,0,0,0,0,0
			c3.8,11.8,3.7,24.6-0.3,36.4c-0.2,0.6-0.4,0.8-1.1,0.8c-8.8,0-17.6,0-26.4,0c-0.2,0-0.4,0-0.6-0.1c0.1-0.9,0.2-1.8,0.3-2.7
			c1-9,1.2-18.1,0.6-27.2c-0.1-0.7,0.2-1.3,0.8-1.6C88,44,89.9,41.7,90.8,38.9"/>
		<path id="Path_494" class="st1" d="M39,32.2c0.5-2.2,0.9-4.4,1.5-6.4c1.6-6.2,3.5-12.2,7-17.6c1.4-2.1,3-4.1,4.8-5.8
			c3.4-3.1,6.9-3,10.5-0.1c2.4,2.1,4.4,4.6,5.8,7.5c2.7,5,4.7,10.4,6,15.9c-2.4,1.4-4.3,3.5-5.2,6.1c-0.1,0.2-0.7,0.4-1.1,0.4
			c-5.5,0-10.9,0-16.4,0C51.8,32.2,39,32.2,39,32.2z"/>
		<path id="Path_495" class="st1" d="M109,32.1c-0.5,0-0.7,0.1-1,0.1c-5.4,0-10.8,0-16.3,0c-0.6,0.1-1.2-0.3-1.3-0.9
			c-1.4-3.6-4.5-6.2-8.3-6.8c-0.7-0.1-1.2-0.6-1.3-1.2c-1.5-6.6-4.1-12.8-7.5-18.7c-0.5-0.9-1.1-1.8-1.8-2.8
			C87.9,5.9,101.6,17,109,32.1"/>
		<path id="Path_496" class="st1" d="M43.5,113.3c-16.7-4.7-28.9-14.4-37.2-29.5c0.6,0,0.9-0.1,1.2-0.1c5.2,0,10.5,0,15.7,0
			c0.6-0.1,1.2,0.3,1.3,0.9c1.4,3.7,4.7,6.3,8.6,6.9c0.8,0.1,1,0.5,1.2,1.2c1.6,6.8,4.4,13.2,8.1,19.1
			C42.7,112.2,43,112.6,43.5,113.3"/>
		<path id="Path_497" class="st1" d="M43.4,1.8c-6.4,9.3-9.2,19.7-11.3,30.3H6c0.2-0.4,0.3-0.8,0.5-1.2c1.5-2.5,3.1-4.9,4.6-7.4
			c0.2-0.5,0.8-0.7,1.3-0.6c6.1,1.1,11.9-2.9,13.1-9c0.2-1.1,0.2-2.1,0.1-3.2c-0.1-0.7,0.2-1.3,0.8-1.6C31.7,5.8,37.4,3.3,43.4,1.8"
			/>
		<path id="Path_498" class="st1" d="M71.6,113.2c6.2-8.9,9-19,11.1-29.4h25.8c-0.1,0.3-0.2,0.6-0.4,0.9c-1.4,2.3-2.9,4.5-4.3,6.8
			c-0.2,0.5-0.8,0.7-1.3,0.6c-6.1-1.1-11.9,2.9-13.1,9c-0.2,1-0.2,2.1-0.1,3.1c0.1,0.7-0.2,1.5-0.9,1.8
			C83.3,109.2,76.1,112.4,71.6,113.2"/>
		<path id="Path_499" class="st1" d="M14.4,16.4c-2.5,0-4.5-2-4.6-4.5c0,0,0,0,0-0.1c0-2.5,2-4.6,4.5-4.6c2.5,0,4.6,2,4.6,4.5
			C19,14.4,17,16.4,14.4,16.4C14.4,16.4,14.4,16.4,14.4,16.4"/>
		<path id="Path_500" class="st1" d="M39.6,80.4c0,2.5-2,4.6-4.5,4.6c-2.5,0-4.6-2-4.6-4.5c0-2.5,2-4.6,4.5-4.6
			C37.5,75.8,39.6,77.8,39.6,80.4"/>
		<path id="Path_501" class="st1" d="M105.1,103.3c-0.1,2.5-2.2,4.5-4.7,4.4s-4.5-2.2-4.4-4.7c0.1-2.5,2.2-4.5,4.7-4.4c0,0,0,0,0,0
			C103.2,98.7,105.2,100.7,105.1,103.3C105.1,103.3,105.1,103.3,105.1,103.3"/>
		<path id="Path_502" class="st1" d="M75.4,35.5c0-2.5,2.1-4.6,4.6-4.5c2.5,0,4.6,2.1,4.5,4.6s-2.1,4.6-4.6,4.5
			C77.4,40.1,75.4,38,75.4,35.5L75.4,35.5"/>
	</g>
</g>
</svg>
